<?xml version="1.0" encoding="iso-8859-1"?><!DOCTYPE svg PUBLIC "-//W3C//DTD SVG 1.0//EN" "http://www.w3.org/TR/SVG/DTD/svg10.dtd">

<svg version="1.1" id="Layer_1" xmlns="http://www.w3.org/2000/svg" xmlns:xlink="http://www.w3.org/1999/xlink" x="0px" y="0px" width="16px" height="16px" viewBox="0 0 17 17" enable-background="new 0 0 17 17" xml:space="preserve">
  <g id="XMLID_1_" opacity="0.3">
    <g>
      <path fill="#000" d="M16.978,8.565c0,4.654-3.781,8.435-8.435,8.435s-8.435-3.78-8.435-8.435c0-4.664,3.781-8.435,8.435-8.435 S16.978,3.902,16.978,8.565z M6.806,13.964h3.463v-6.45H6.806V13.964z M10.279,4.864c0-0.962-0.774-1.736-1.737-1.736 S6.806,3.902,6.806,4.864S7.58,6.601,8.542,6.601S10.279,5.827,10.279,4.864z"/>
    </g>
  </g>
  <g id="XMLID_2_" opacity="0.3">
    <g>
      <path fill="#000" d="M4.537,15.966c-2.966-1.588-4.613-4.673-4.494-7.808c0.274,2.654,1.825,5.134,4.366,6.493 c4.052,2.169,9.082,0.663,11.237-3.364c1.015-1.896,1.21-4.01,0.713-5.945c0.929,2.253,0.882,4.881-0.354,7.189 C13.807,16.641,8.673,18.179,4.537,15.966z"/>
    </g>
  </g>
</svg>
